<?xml version="1.0" encoding="UTF-8" standalone="no"?><!DOCTYPE svg PUBLIC "-//W3C//DTD SVG 1.1//EN" "http://www.w3.org/Graphics/SVG/1.1/DTD/svg11.dtd"><svg width="100%" height="100%" viewBox="0 0 4669 1247" version="1.1" xmlns="http://www.w3.org/2000/svg" xmlns:xlink="http://www.w3.org/1999/xlink" xml:space="preserve" xmlns:serif="http://www.serif.com/" style="fill-rule:evenodd;clip-rule:evenodd;stroke-linejoin:round;stroke-miterlimit:2;"><rect id="Artboard1" x="0" y="0" width="4668.05" height="1246.02" style="fill:none;"/><path id="Xarrow" d="M1484.604,352.277l-322.697,281.847l399.221,413.626l-169.891,0.112l-326.891,-328.528l-120.355,105.12l-169.457,0.084l209.801,-187.919l-209.601,-216.687l179.418,-0.088l126.516,130.49l311.708,-279.198l-83.736,-73.672l252.909,-0.125l-0.488,222.206l-76.456,-67.267Z" style="fill:#01c950;"/><path id="E" d="M1266.201,1048.683l-850,0l0,-850l680.972,0l169.028,121.494l-708.735,0l-0,245.185l247.356,0l0,119.19l-247.356,0l0.924,239.777l539.995,-2.292l167.816,126.647Z" style="fill:#00a844;"/><g transform="matrix(1,0,0,1,538.942363,-74.193964)"><text x="1382.506px" y="975.034px" style="font-family:'PlusJakartaSans-Bold', 'Plus Jakarta Sans';font-weight:700;font-size:750px;fill:#00a844;">E</text><g transform="matrix(750,0,0,750,3745.755852,975.034155)"></g><text x="1828.756px" y="975.034px" style="font-family:'PlusJakartaSans-Bold', 'Plus Jakarta Sans';font-weight:700;font-size:750px;fill:#01c950;">xP<tspan x="2709.256px 3144.256px 3436.006px " y="975.034px 975.034px 975.034px ">art</tspan></text></g></svg>