<?xml version="1.0" encoding="UTF-8" standalone="no"?><!DOCTYPE svg PUBLIC "-//W3C//DTD SVG 1.1//EN" "http://www.w3.org/Graphics/SVG/1.1/DTD/svg11.dtd"><svg width="100%" height="100%" viewBox="0 0 1200 1080" version="1.1" xmlns="http://www.w3.org/2000/svg" xmlns:xlink="http://www.w3.org/1999/xlink" xml:space="preserve" xmlns:serif="http://www.serif.com/" style="fill-rule:evenodd;clip-rule:evenodd;stroke-linejoin:round;stroke-miterlimit:2;"><rect id="Artboard1" x="0" y="0" width="1200" height="1080" style="fill:none;"/><path d="M1036.047,272.969l-319.754,279.239l395.954,408.378l-179.252,0l-313.373,-323.956l-119.258,104.147l-167.984,-0l207.885,-186.183l-207.885,-214.906l177.859,-0l125.48,129.417l308.862,-276.619l-83.045,-73.072l250.71,-0l-0.375,220.274l-75.824,-66.719Z" style="fill:#01c950;"/><path d="M811.2,960.586l-723.446,0l-0,-841.173l579.584,0l143.862,120.232l-603.214,0l-0,242.638l210.528,0l0,117.952l-210.528,0l0,240.118l459.352,0l143.862,120.232Z" style="fill:#00a844;"/></svg>